HIERARCHY
ROOT Hips
{
	OFFSET 0.00000 0.00000 0.00000
	CHANNELS 6 Xposition Yposition Zposition Zrotation Yrotation Xrotation 
	JOINT LHipJoint
	{
		OFFSET 0 0 0
		CHANNELS 3 Zrotation Yrotation Xrotation
		JOINT LeftUpLeg
		{
			OFFSET 1.70593 -1.62653 0.87602
			CHANNELS 3 Zrotation Yrotation Xrotation
			JOINT LeftLeg
			{
				OFFSET 2.32330 -6.38322 0.00000
				CHANNELS 3 Zrotation Yrotation Xrotation
				JOINT LeftFoot
				{
					OFFSET 2.45016 -6.73177 0.00000
					CHANNELS 3 Zrotation Yrotation Xrotation
					JOINT LeftToeBase
					{
						OFFSET 0.13029 -0.35798 1.96980
						CHANNELS 3 Zrotation Yrotation Xrotation
						End Site
						{
							OFFSET 0.00000 -0.00000 1.01270
						}
					}
				}
			}
		}
	}
	JOINT RHipJoint
	{
		OFFSET 0 0 0
		CHANNELS 3 Zrotation Yrotation Xrotation
		JOINT RightUpLeg
		{
			OFFSET -1.80599 -1.62652 0.87602
			CHANNELS 3 Zrotation Yrotation Xrotation
			JOINT RightLeg
			{
				OFFSET -2.45375 -6.74162 0.00000
				CHANNELS 3 Zrotation Yrotation Xrotation
				JOINT RightFoot
				{
					OFFSET -2.45828 -6.75406 0.00000
					CHANNELS 3 Zrotation Yrotation Xrotation
					JOINT RightToeBase
					{
						OFFSET -0.13801 -0.37917 1.88456
						CHANNELS 3 Zrotation Yrotation Xrotation
						End Site
						{
							OFFSET -0.00000 -0.00000 0.97281
						}
					}
				}
			}
		}
	}
	JOINT LowerBack
	{
		OFFSET 0 0 0
		CHANNELS 3 Zrotation Yrotation Xrotation
		JOINT Spine
		{
			OFFSET 0.01003 2.00576 -0.14267
			CHANNELS 3 Zrotation Yrotation Xrotation
			JOINT Spine1
			{
				OFFSET 0.00908 2.01191 0.01660
				CHANNELS 3 Zrotation Yrotation Xrotation
				JOINT Neck
				{
					OFFSET 0 0 0
					CHANNELS 3 Zrotation Yrotation Xrotation
					JOINT Neck1
					{
						OFFSET -0.05849 1.60301 0.18934
						CHANNELS 3 Zrotation Yrotation Xrotation
						JOINT Head
						{
							OFFSET 0.01775 1.59435 -0.07960
							CHANNELS 3 Zrotation Yrotation Xrotation
							End Site
							{
								OFFSET 0.01210 1.70732 -0.05248
							}
						}
					}
				}
				JOINT LeftShoulder
				{
					OFFSET 0 0 0
					CHANNELS 3 Zrotation Yrotation Xrotation
					JOINT LeftArm
					{
						OFFSET 3.15315 1.26460 0.30667
						CHANNELS 3 Zrotation Yrotation Xrotation
						JOINT LeftForeArm
						{
							OFFSET 4.97694 -0.00000 -0.00000
							CHANNELS 3 Zrotation Yrotation Xrotation
							JOINT LeftHand
							{
								OFFSET 3.14391 -0.00000 -0.00000
								CHANNELS 3 Zrotation Yrotation Xrotation
								JOINT LeftFingerBase
								{
									OFFSET 0 0 0
									CHANNELS 3 Zrotation Yrotation Xrotation
									JOINT LeftHandIndex1
									{
										OFFSET 0.59358 -0.00000 -0.00000
										CHANNELS 3 Zrotation Yrotation Xrotation
										End Site
										{
											OFFSET 0.47856 -0.00000 -0.00000
										}
									}
								}
								JOINT LThumb
								{
									OFFSET 0 0 0
									CHANNELS 3 Zrotation Yrotation Xrotation
									End Site
									{
										OFFSET 0.48587 -0.00000 0.48587
									}
								}
							}
						}
					}
				}
				JOINT RightShoulder
				{
					OFFSET 0 0 0
					CHANNELS 3 Zrotation Yrotation Xrotation
					JOINT RightArm
					{
						OFFSET -3.25568 1.35581 0.18982
						CHANNELS 3 Zrotation Yrotation Xrotation
						JOINT RightForeArm
						{
							OFFSET -4.90473 -0.00000 0.00000
							CHANNELS 3 Zrotation Yrotation Xrotation
							JOINT RightHand
							{
								OFFSET -3.21621 0.00006 -0.00004
								CHANNELS 3 Zrotation Yrotation Xrotation
								JOINT RightFingerBase
								{
									OFFSET 0 0 0
									CHANNELS 3 Zrotation Yrotation Xrotation
									JOINT RightHandIndex1
									{
										OFFSET -0.62353 -0.00000 -0.00000
										CHANNELS 3 Zrotation Yrotation Xrotation
										End Site
										{
											OFFSET -0.50270 -0.00000 -0.00000
										}
									}
								}
								JOINT RThumb
								{
									OFFSET 0 0 0
									CHANNELS 3 Zrotation Yrotation Xrotation
									End Site
									{
										OFFSET -0.51038 -0.00000 0.51038
									}
								}
							}
						}
					}
				}
			}
		}
	}
}
MOTION
Frames: 14
Frame Time: .0083333
7.2690 16.1548 -2.3515 3.6485 -5.9062 6.2347 0.0000 0.0000 0.0000 -28.9659 0.3349 -4.9894 1.6407 8.0738 22.9385 0.4705 -13.5869 -14.5055 0.1146 2.1830 6.0116 0.0000 0.0000 0.0000 15.1708 16.0780 -36.6550 -6.7937 -15.1557 48.0898 -1.3099 5.9632 -20.4926 -0.6633 5.2088 -14.5049 -5.6155 1.0452 -1.4843 -0.8925 1.3699 -3.1492 2.2127 0.8060 -2.5269 -0.7774 0.1196 -9.8391 0.6608 0.1829 14.4254 0.3512 0.0966 5.9851 -0.0000 -0.0000 0.0000 -86.4405 -24.2628 27.5396 14.7391 -23.7814 -3.1200 -0.0000 0.0000 -18.3911 25.2819 -12.6505 -5.9055 -7.1250 0.0000 -0.0000 -1.3773 16.0418 0.9433 -0.0000 -0.0000 0.0000 92.8923 -19.5908 -5.1795 -9.4253 15.8357 -1.3138 0.0000 0.0000 14.3665 -19.7217 -34.2803 11.4151 7.1250 -0.0000 -0.0000 17.0021 -65.1279 -8.3858
7.2706 16.1384 -2.1273 3.7517 -5.3510 6.3472 0.0000 0.0000 0.0000 -28.9948 0.8387 -3.8700 1.5174 7.7788 22.0442 0.3336 -14.2973 -13.5464 0.2232 3.0410 8.3929 0.0000 0.0000 0.0000 14.8842 16.1597 -37.4696 -6.1975 -14.6171 45.7694 -1.1835 6.2597 -19.4409 -0.6280 5.0709 -14.1108 -5.5884 0.7467 -1.4925 -0.9171 0.9715 -3.1653 2.1767 0.6059 -2.5057 -0.9503 0.1579 -9.5758 1.0152 0.2066 14.1048 0.4920 0.1254 5.8380 -0.0000 -0.0000 0.0000 -85.7714 -26.3299 28.6896 15.3328 -24.6077 -3.3633 -0.0000 0.0000 -19.4516 24.8899 -12.3702 -5.6763 -7.1250 0.0000 -0.0000 -1.6305 16.3915 1.1046 -0.0000 -0.0000 0.0000 93.1087 -20.7992 -8.6143 -8.9387 15.0627 -1.1841 0.0000 0.0000 17.2249 -19.2060 -32.6382 10.6406 7.1250 -0.0000 -0.0000 16.1241 -63.4226 -7.3023
7.2705 16.1131 -1.8945 3.6497 -4.8979 6.4770 0.0000 0.0000 0.0000 -28.7739 1.5178 -2.7992 1.3980 7.4799 21.1451 0.2349 -14.9300 -12.9291 0.2264 3.0625 8.4527 0.0000 0.0000 0.0000 14.8319 16.4555 -38.1587 -5.6107 -14.0401 43.3985 -1.1300 6.8198 -18.9820 -0.4587 4.3446 -12.0481 -5.3527 0.5060 -1.6546 -0.8707 0.6654 -3.0920 2.0984 0.4422 -2.3102 -1.1782 0.2234 -9.6237 1.3933 0.2753 13.9178 0.6534 0.1752 5.7855 -0.0000 -0.0000 0.0000 -85.0704 -28.6267 30.0167 15.7883 -25.2328 -3.5552 -0.0000 0.0000 -20.7957 24.2337 -11.8443 -5.2785 -7.1250 0.0000 -0.0000 -2.0562 17.0331 1.3646 -0.0000 -0.0000 0.0000 93.3740 -21.9331 -11.8558 -8.6170 14.5480 -1.1019 0.0000 0.0000 19.6270 -19.1891 -31.2400 10.2314 7.1250 -0.0000 -0.0000 15.0282 -62.0707 -6.3163
7.2641 16.0912 -1.6560 3.5760 -4.6834 6.4019 0.0000 0.0000 0.0000 -28.5114 2.7094 -1.6586 1.2843 7.1815 20.2541 0.1550 -15.5623 -12.5180 0.1473 2.4736 6.8163 0.0000 0.0000 0.0000 14.7483 17.1337 -38.5175 -5.0369 -13.4253 40.9820 -1.1143 7.4318 -18.8592 -0.2411 3.1602 -8.7251 -5.2737 0.3268 -1.7669 -0.7757 0.4426 -2.8974 2.1555 0.3203 -2.0284 -1.1832 0.3802 -9.7050 1.4560 0.4820 13.6993 0.6893 0.2805 5.7278 -0.0000 0.0000 0.0000 -84.2108 -30.9057 31.4612 16.2999 -25.9256 -3.7761 -0.0000 0.0000 -22.2471 24.8344 -11.3525 -5.2052 -7.1250 0.0000 -0.0000 -1.6099 17.5081 1.0514 -0.0000 0.0000 0.0000 93.4129 -23.0692 -14.3431 -8.3776 14.1630 -1.0426 0.0000 0.0000 21.4087 -19.6085 -31.9877 10.6871 7.1250 -0.0000 -0.0000 15.1336 -62.9020 -6.6581
7.2542 16.0686 -1.4267 3.4273 -4.3436 6.4261 0.0000 0.0000 0.0000 -28.1411 3.6952 -0.4410 1.1578 6.8314 19.2168 0.0435 -16.2103 -11.8307 0.1092 2.1307 5.8670 0.0000 0.0000 0.0000 14.7398 17.5566 -39.0478 -4.4989 -12.7962 38.6104 -1.0557 8.0780 -18.3939 -0.0878 1.9112 -5.2603 -5.2406 0.1318 -1.8038 -0.6054 0.1914 -2.7935 2.3133 0.1908 -1.8813 -1.2405 0.4931 -9.8432 1.4614 0.6449 13.7010 0.7135 0.3576 5.7495 -0.0000 0.0000 0.0000 -83.2119 -33.1153 33.1053 16.8028 -26.5971 -3.9987 -0.0000 0.0000 -24.2881 25.4245 -10.8523 -5.1143 -7.1250 0.0000 -0.0000 -1.1680 17.9972 0.7501 -0.0000 0.0000 0.0000 93.3482 -24.2430 -16.6663 -8.1884 13.8578 -0.9968 0.0000 0.0000 23.0377 -19.7209 -33.4556 11.1786 7.1250 -0.0000 -0.0000 16.2415 -64.3430 -7.7057
7.2509 16.0547 -1.2073 3.3368 -3.6504 6.7747 0.0000 0.0000 0.0000 -27.8135 4.1653 0.8136 0.9871 6.3236 17.7264 -0.0884 -16.7062 -10.8382 0.1045 2.0850 5.7405 0.0000 0.0000 0.0000 14.5225 17.5839 -40.0690 -4.0242 -12.1925 36.4163 -0.9996 8.2806 -17.9259 -0.1012 2.0514 -5.6478 -5.2402 -0.2141 -1.8211 -0.3981 -0.2711 -2.9535 2.5261 -0.0321 -1.9998 -1.1628 0.5347 -10.0213 1.1604 0.7349 13.9341 0.6149 0.3830 5.8537 -0.0000 -0.0000 0.0000 -82.3341 -35.0820 34.1546 17.1511 -27.0566 -4.1558 -0.0000 0.0000 -26.1584 25.2892 -10.9283 -5.1184 -7.1250 0.0000 -0.0000 -1.2674 17.9272 0.8159 -0.0000 -0.0000 0.0000 93.2158 -25.6250 -18.6881 -8.0965 13.7092 -0.9749 0.0000 0.0000 24.2458 -19.6224 -33.9646 11.2649 7.1250 -0.0000 -0.0000 16.8202 -64.8008 -8.1664
7.2482 16.0474 -0.9831 3.4749 -2.8801 7.0056 0.0000 0.0000 0.0000 -27.6330 4.8188 2.4287 0.7733 5.6150 15.6712 -0.2345 -17.0412 -9.5353 0.1056 2.0956 5.7698 0.0000 0.0000 0.0000 14.0336 17.5243 -41.0191 -3.6237 -11.6421 34.4772 -0.9993 7.9260 -17.8946 -0.3824 3.9713 -10.9958 -5.3487 -0.6283 -1.8263 -0.3072 -0.8242 -3.0433 2.6798 -0.3024 -2.0421 -0.9620 0.6351 -9.7071 0.8105 0.8900 13.5291 0.4806 0.4428 5.6737 0.0000 0.0000 0.0000 -81.6672 -36.8672 34.0506 17.5786 -27.6142 -4.3522 -0.0000 0.0000 -27.0124 25.7017 -11.8193 -5.6302 -7.1250 0.0000 -0.0000 -1.0325 16.9065 0.6877 0.0000 0.0000 0.0000 93.1220 -26.8932 -20.7798 -7.9571 13.4832 -0.9421 0.0000 0.0000 25.6888 -19.4046 -34.3001 11.2272 7.1250 -0.0000 -0.0000 17.3911 -65.0582 -8.5550
7.2454 16.0224 -0.7512 3.7997 -2.3321 7.0577 0.0000 0.0000 0.0000 -27.7037 5.7072 4.4738 0.5401 4.7087 13.0796 -0.3684 -17.0450 -7.9705 0.1061 2.1005 5.7835 0.0000 0.0000 0.0000 13.4127 17.4240 -41.9040 -3.2817 -11.1377 32.7458 -0.9410 7.9805 -17.3819 -0.6168 5.0262 -13.9832 -5.5880 -0.9673 -1.9096 -0.3124 -1.2654 -2.9221 2.8040 -0.5260 -1.8286 -0.9247 0.7665 -9.5037 0.7030 1.0768 13.0123 0.4516 0.5290 5.4765 -0.0000 0.0000 0.0000 -81.1396 -38.7742 33.1042 18.0753 -28.2535 -4.5848 -0.0000 0.0000 -26.9042 25.5603 -12.0230 -5.6893 -7.1250 0.0000 -0.0000 -1.1439 16.6983 0.7671 -0.0000 0.0000 0.0000 93.0446 -27.9095 -22.9143 -7.7855 13.2045 -0.9025 0.0000 0.0000 27.3793 -19.1331 -35.0968 11.2807 7.1250 -0.0000 -0.0000 18.5006 -65.7303 -9.4043
7.2509 15.9846 -0.5081 4.3514 -1.9751 6.9212 0.0000 0.0000 0.0000 -28.0937 6.5840 7.1239 0.3120 3.5911 9.9292 -0.4471 -16.5848 -6.4455 0.1323 2.3443 6.4582 0.0000 0.0000 0.0000 12.7408 17.0117 -42.7046 -2.9700 -10.6464 31.0964 -0.7663 9.2318 -15.9414 -0.4293 4.2047 -11.6533 -5.9982 -1.2191 -1.9072 -0.4009 -1.5919 -2.7189 2.9369 -0.6933 -1.5841 -0.8447 0.8180 -9.9306 0.5449 1.1608 13.0912 0.3980 0.5625 5.5747 -0.0000 -0.0000 0.0000 -80.5590 -40.8492 32.2079 18.3712 -28.6298 -4.7258 -0.0000 0.0000 -26.7678 24.9325 -11.5044 -5.2971 -7.1250 0.0000 -0.0000 -1.5499 17.3322 1.0181 -0.0000 -0.0000 0.0000 93.0202 -28.8603 -25.3352 -7.6635 13.0059 -0.8748 0.0000 0.0000 29.0461 -19.1497 -35.0468 11.2773 7.1250 -0.0000 -0.0000 18.4297 -65.6882 -9.3494
7.2499 15.9450 -0.2677 4.8492 -1.4170 6.7683 0.0000 0.0000 0.0000 -28.3247 7.0063 10.3752 0.1156 2.1921 6.0368 -0.4477 -15.4245 -5.0197 0.1549 2.5364 6.9906 0.0000 0.0000 0.0000 12.2710 16.3925 -43.4471 -2.6647 -10.1315 29.4035 -0.5879 10.6603 -14.5626 -0.1778 2.7159 -7.4887 -6.4277 -1.4952 -1.6137 -0.4849 -1.9777 -2.6473 3.0927 -0.8793 -1.6294 -0.6477 0.8286 -9.9833 0.3556 1.1715 12.8429 0.3065 0.5643 5.5084 0.0000 -0.0000 0.0000 -79.8049 -42.8318 31.9453 18.4988 -28.7912 -4.7871 -0.0000 0.0000 -27.3275 24.9645 -11.5060 -5.3055 -7.1250 0.0000 -0.0000 -1.5276 17.3273 1.0037 0.0000 -0.0000 0.0000 93.1363 -29.8978 -27.9769 -7.6102 12.9191 -0.8629 0.0000 0.0000 30.3607 -18.9503 -34.1002 10.8962 7.1250 -0.0000 -0.0000 17.7266 -64.7436 -8.5958
7.2370 15.9054 -0.0407 4.9301 -0.6240 6.9776 0.0000 0.0000 0.0000 -28.0205 7.4552 14.4351 0.0000 0.0000 0.0000 -0.3952 -13.1463 -2.7702 0.1733 2.6819 7.3943 0.0000 0.0000 0.0000 12.1490 15.9620 -44.3769 -2.3534 -9.5664 27.5838 -0.4904 11.2277 -13.7733 -0.1552 2.5381 -6.9954 -6.5475 -1.8423 -1.4435 -0.4041 -2.4555 -2.7232 3.2456 -1.1096 -1.7481 -0.5063 0.8529 -9.8820 0.2308 1.1986 12.5036 0.2445 0.5764 5.3869 -0.0000 0.0000 0.0000 -78.8984 -44.8129 31.6534 18.4688 -28.7533 -4.7726 -0.0000 0.0000 -27.9867 25.4501 -12.2073 -5.7464 -7.1250 0.0000 -0.0000 -1.2322 16.5082 0.8314 -0.0000 0.0000 0.0000 93.1720 -31.0735 -29.7454 -7.6582 12.9973 -0.8736 0.0000 0.0000 30.5890 -18.3760 -33.7005 10.4433 7.1250 -0.0000 -0.0000 18.0105 -64.2097 -8.5144
7.2317 15.8606 0.1888 4.7712 0.0034 7.2264 0.0000 0.0000 0.0000 -27.7005 6.9901 15.3650 0.0000 0.0000 0.0000 -0.3947 -13.1098 -2.7234 0.2674 3.3265 9.1890 0.0000 0.0000 0.0000 12.6583 15.1758 -45.2832 -2.0510 -8.9714 25.7059 -0.3863 12.0781 -13.0383 -0.2865 3.4423 -9.5127 -6.3028 -2.1072 -1.6243 -0.2670 -2.7890 -2.6170 3.2373 -1.2895 -1.5052 -0.5535 0.8761 -10.2378 0.2209 1.2409 12.4690 0.2541 0.5941 5.4360 -0.0000 -0.0000 0.0000 -77.9691 -47.1085 31.1510 18.3601 -28.6158 -4.7204 -0.0000 0.0000 -28.3381 25.9127 -12.9585 -6.2178 -7.1250 0.0000 -0.0000 -0.9638 15.6311 0.6686 -0.0000 -0.0000 0.0000 93.1806 -32.0370 -30.9680 -7.7369 13.1255 -0.8914 0.0000 0.0000 30.3151 -18.3543 -33.7150 10.4343 7.1250 -0.0000 -0.0000 18.0488 -64.2176 -8.5364
7.2304 15.8096 0.4203 4.8416 0.4826 7.4426 0.0000 0.0000 0.0000 -27.6521 6.6485 16.2609 0.0000 0.0000 0.0000 -0.3907 -13.1054 -2.8084 0.3203 3.6378 10.0599 0.0000 0.0000 0.0000 12.9938 14.3802 -46.1192 -1.7913 -8.4172 23.9887 -0.1803 13.5420 -11.5829 -0.5036 4.5493 -12.6275 -6.1840 -2.2692 -1.7785 -0.2716 -2.9916 -2.5600 3.1553 -1.3990 -1.3445 -0.5869 0.8753 -10.0150 0.2327 1.2408 11.9410 0.2599 0.5951 5.2335 -0.0000 0.0000 0.0000 -77.2976 -49.0708 30.9327 18.4877 -28.7771 -4.7817 -0.0000 0.0000 -28.5995 26.0198 -13.0318 -6.2816 -7.1250 0.0000 -0.0000 -0.8956 15.5379 0.6230 -0.0000 0.0000 0.0000 93.3363 -32.9422 -32.3988 -7.6940 13.0557 -0.8817 0.0000 0.0000 30.4498 -18.6337 -33.5746 10.5629 7.1250 -0.0000 -0.0000 17.6001 -64.1608 -8.2944
7.2257 15.7745 0.6533 4.8825 0.9164 7.6066 0.0000 0.0000 0.0000 -27.5735 6.3510 17.1189 0.0000 0.0000 0.0000 -0.3646 -13.0090 -3.2433 0.1851 2.7708 7.6414 0.0000 0.0000 0.0000 12.7181 14.4314 -46.6108 -1.6054 -7.9907 22.6857 0.0475 14.7264 -9.7938 -0.1007 2.0459 -5.6327 -6.0862 -2.4292 -1.5154 -0.2742 -3.2340 -2.7901 3.1126 -1.5059 -1.7112 -0.3562 0.8650 -9.4209 0.0493 1.2119 11.4662 0.1583 0.5805 4.9889 -0.0000 -0.0000 0.0000 -76.5743 -50.3879 30.7055 18.6152 -28.9377 -4.8432 -0.0000 0.0000 -28.9596 25.9640 -12.5870 -6.0574 -7.1250 0.0000 -0.0000 -0.9022 16.0334 0.6180 -0.0000 -0.0000 0.0000 93.4658 -34.4294 -32.7703 -7.7304 13.1149 -0.8900 0.0000 0.0000 29.7253 -18.5201 -33.7441 10.5410 7.1250 -0.0000 -0.0000 17.8864 -64.2901 -8.4873
